#!OML:ASF X:\für Bonn\!DataBase\2005_08_11_Bastian_Final\c3d\Bastian.ASF
:FULLY-SPECIFIED
:DEGREES
46
root -3.44403 16.8725 7.05687 167.889 3.76344 -172.965
lowerback 13.0661 -4.35259 1.5147
upperback 8.36913 -4.16664 4.76378
thorax 1.7542 -1.53595 4.62465
lowerneck -4.40906 -5.91381 -2.39863
upperneck -13.2438 -6.65864 4.78389
head -3.25334 -2.98804 2.04191
rclavicle 1.04362e-014 -3.49861e-014
rhumerus -42.4677 8.94529 -81.0061
rradius 98.6972
rwrist -243.828
rhand -5.75767 -28.574
rfingers 7.12502
rthumb 20.0653 -417.558
lclavicle 1.04362e-014 -3.49861e-014
lhumerus 358.962 -23.6895 -280.216
lradius 90.8157
lwrist -140.283
lhand -24.0883 13.0586
lfingers 7.12502
lthumb 2.39205 43.0249
rfemur -26.0335 -8.98966 31.873
rtibia 57.2207
rfoot -4.57309 -17.2661
rtoes 8.45276
lfemur 17.8142 -1.37221 -15.922
ltibia 26.2278
lfoot -26.2917 -2.71856
ltoes 7.60614
47
root -3.43769 16.8732 7.07829 167.692 2.98489 -172.959
lowerback 12.9556 -4.29268 1.61471
upperback 8.35573 -4.07327 4.77717
thorax 1.78493 -1.4812 4.56624
lowerneck -3.86448 -6.29226 -2.63523
upperneck -13.2731 -7.19055 4.98696
head -3.32601 -3.26484 2.17539
rclavicle 1.53064e-014 1.59028e-014
rhumerus -41.7351 9.20772 -80.7341
rradius 100.077
rwrist -243.406
rhand -5.92824 -28.9566
rfingers 7.12502
rthumb 19.9013 -417.958
lclavicle 1.53064e-014 1.59028e-014
lhumerus 361.246 -23.9393 -281.374
lradius 91.4058
lwrist -140.035
lhand -24.1152 12.953
lfingers 7.12502
lthumb 2.36611 42.9196
rfemur -25.9866 -7.67406 31.4514
rtibia 56.9191
rfoot -4.70594 -17.0465
rtoes 7.77374
lfemur 17.6326 -1.85849 -15.9507
ltibia 26.533
lfoot -26.2477 -2.99881
ltoes 7.93889
48
root -3.43011 16.8731 7.09697 167.51 2.17251 -172.948
lowerback 12.8303 -4.23167 1.70828
upperback 8.32989 -3.98046 4.80776
thorax 1.81269 -1.42782 4.52931
lowerneck -3.30539 -6.66974 -2.91439
upperneck -13.314 -7.7231 5.19344
head -3.4017 -3.54006 2.32071
rclavicle 2.15681e-014 2.70347e-014
rhumerus -40.6133 9.36215 -80.3929
rradius 101.089
rwrist -243.002
rhand -6.16609 -29.2919
rfingers 7.12502
rthumb 19.6727 -418.316
lclavicle 2.15681e-014 2.70347e-014
lhumerus 363.663 -24.178 -282.524
lradius 91.8737
lwrist -139.792
lhand -24.0453 12.8712
lfingers 7.12502
lthumb 2.43357 42.8371
rfemur -25.9607 -6.29752 30.9991
rtibia 56.5436
rfoot -4.60552 -16.5602
rtoes 6.11555
lfemur 17.4294 -2.34966 -15.9722
ltibia 26.86
lfoot -26.2064 -3.28515
ltoes 8.07375
49
root -3.42261 16.8727 7.11323 167.346 1.37942 -172.921
lowerback 12.7059 -4.16759 1.84953
upperback 8.27465 -3.88279 4.83464
thorax 1.80473 -1.37191 4.46182
lowerneck -2.72228 -7.04129 -3.21349
upperneck -13.317 -8.25514 5.42044
head -3.46473 -3.81736 2.47841
rclavicle -2.18663e-015 -3.97569e-015
rhumerus -39.4117 9.54592 -80.0071
rradius 102.075
rwrist -242.589
rhand -6.25405 -29.6274
rfingers 7.12502
rthumb 19.5881 -418.661
lclavicle -2.18663e-015 -3.97569e-015
lhumerus 366.126 -24.4433 -283.698
lradius 92.2755
lwrist -139.599
lhand -23.7227 12.8871
lfingers 7.12502
lthumb 2.74513 42.8492
rfemur -25.9589 -4.83199 30.5357
rtibia 56.0958
rfoot -4.5361 -15.9596
rtoes 4.49522
lfemur 17.2086 -2.85694 -15.9876
ltibia 27.2079
lfoot -26.1899 -3.58388
ltoes 8.38764
50
root -3.41419 16.8718 7.12878 167.175 0.552473 -172.883
lowerback 12.5922 -2.16726 2.41792
upperback 8.02052 -4.252 5.09103
thorax 1.65043 -2.85531 4.4056
lowerneck -2.15961 -7.4096 -3.5105
upperneck -13.2896 -8.78624 5.65787
head -3.51045 -4.09537 2.6392
rclavicle -2.75317e-014 2.14687e-014
rhumerus -38.0816 9.70082 -79.6102
rradius 102.967
rwrist -242.18
rhand -6.29054 -29.9969
rfingers 7.12502
rthumb 19.553 -419.034
lclavicle -2.75317e-014 2.14687e-014
lhumerus 368.697 -24.684 -284.917
lradius 92.5342
lwrist -139.279
lhand -23.2846 13.0004
lfingers 7.12502
lthumb 3.16822 42.9566
rfemur -25.9433 -3.30874 30.0305
rtibia 55.5878
rfoot -4.61691 -15.2163
rtoes 3.5158
lfemur 16.9817 -3.35673 -15.9762
ltibia 27.5733
lfoot -26.171 -3.92593
ltoes 8.74909
51
root -3.40525 16.8681 7.14201 167.001 -0.273692 -172.842
lowerback 12.5213 -2.1285 2.49932
upperback 7.94298 -4.15998 5.13965
thorax 1.5988 -2.79378 4.40012
lowerneck -1.64602 -7.76778 -3.80043
upperneck -13.2102 -9.3108 5.86859
head -3.52801 -4.37043 2.78676
rclavicle -2.5842e-014 1.90833e-014
rhumerus -36.6662 9.90862 -79.1312
rradius 103.806
rwrist -241.854
rhand -6.29888 -30.48
rfingers 7.12502
rthumb 19.545 -419.518
lclavicle -2.5842e-014 1.90833e-014
lhumerus 371.318 -24.8721 -286.113
lradius 92.739
lwrist -139.016
lhand -22.6474 13.1942
lfingers 7.12502
lthumb 3.78361 43.1403
rfemur -25.8937 -1.71773 29.4889
rtibia 55.038
rfoot -4.8874 -14.3502
rtoes 3.08253
lfemur 16.7668 -3.85007 -15.9552
ltibia 27.9479
lfoot -26.1561 -4.30558
ltoes 9.10831
52
root -3.39444 16.8635 7.15304 166.848 -1.11957 -172.783
lowerback 12.444 -2.09771 2.56454
upperback 7.84867 -4.07723 5.19761
thorax 1.5352 -2.73665 4.41484
lowerneck -1.10689 -8.11602 -4.05078
upperneck -13.1657 -9.82406 6.05405
head -3.56396 -4.64033 2.92359
rclavicle -8.16011e-014 3.49861e-014
rhumerus -35.1457 10.1548 -78.6257
rradius 104.557
rwrist -241.47
rhand -6.17232 -31.047
rfingers 7.12502
rthumb 19.6667 -420.072
lclavicle -8.16011e-014 3.49861e-014
lhumerus 374.016 -24.9928 -287.318
lradius 92.8532
lwrist -138.717
lhand -21.919 13.5025
lfingers 7.12502
lthumb 4.48694 43.4349
rfemur -25.8523 -0.0915004 28.9333
rtibia 54.4627
rfoot -5.31307 -13.4448
rtoes 2.9761
lfemur 16.518 -4.39006 -15.922
ltibia 28.3439
lfoot -26.1521 -4.69227
ltoes 9.58138
53
root -3.38107 16.8573 7.16045 166.659 -2.01512 -172.742
lowerback 12.4111 -2.0742 2.56711
upperback 7.74692 -4.0054 5.24502
thorax 1.44318 -2.6863 4.45824
lowerneck -0.587049 -8.46258 -4.25053
upperneck -13.0825 -10.338 6.23497
head -3.58336 -4.91393 3.04887
rclavicle -3.37934e-014 5.24792e-014
rhumerus -33.599 10.3648 -78.1051
rradius 105.219
rwrist -241.144
rhand -6.07526 -31.7916
rfingers 7.12502
rthumb 19.76 -420.807
lclavicle -3.37934e-014 5.24792e-014
lhumerus 376.72 -25.0532 -288.493
lradius 92.8937
lwrist -138.496
lhand -21.1439 13.9484
lfingers 7.12502
lthumb 5.23541 43.8638
rfemur -25.7525 1.54378 28.3215
rtibia 53.8691
rfoot -5.82201 -12.6259
rtoes 2.95864
lfemur 16.3015 -4.92744 -15.8907
ltibia 28.7511
lfoot -26.1497 -5.14011
ltoes 10.0467
